<?xml version="1.0" encoding="utf-8"?>
<!-- Generator: Adobe Illustrator 27.5.0, SVG Export Plug-In . SVG Version: 6.00 Build 0)  -->
<svg version="1.1" id="Camada_1" xmlns="http://www.w3.org/2000/svg" xmlns:xlink="http://www.w3.org/1999/xlink" x="0px" y="0px"
	 viewBox="0 0 1300 1300" style="enable-background:new 0 0 1300 1300;" xml:space="preserve">
<linearGradient id="SVGID_1_" gradientUnits="userSpaceOnUse" x1="222.9413" y1="649.5451" x2="309.6052" y2="649.5451">
	<stop  offset="0" style="stop-color:#CBDF84"/>
	<stop  offset="1" style="stop-color:#AAD037"/>
</linearGradient>
<path style="fill:url(#SVGID_1_);" d="M309.605,688.679c-4.897,1.988-10.313,3.094-16.796,3.094
	c-23.034,0-38.965-19.194-38.965-42.227v-0.384c0-23.034,16.315-41.844,38.965-41.844c6.112,0,11.623,1.202,16.796,3.387v-29.23
	c-5.02-0.913-10.512-1.412-16.604-1.412c-41.268,0-70.06,31.287-70.06,69.484v0.383c0,38.581,29.367,69.1,68.908,69.1
	c6.545,0,12.413-0.592,17.756-1.708V688.679z"/>
<path style="fill:#010101;" d="M356.247,638.708"/>
<linearGradient id="SVGID_00000035512334810088765730000006371484684386998707_" gradientUnits="userSpaceOnUse" x1="344.8168" y1="701.5023" x2="344.8168" y2="597.588">
	<stop  offset="0" style="stop-color:#AAD037"/>
	<stop  offset="1" style="stop-color:#9CCB3D"/>
</linearGradient>
<polygon style="fill:url(#SVGID_00000035512334810088765730000006371484684386998707_);" points="356.247,659.788 356.247,701.502 
	333.386,701.502 333.386,597.588 356.247,597.588 356.247,638.708 "/>
<linearGradient id="SVGID_00000021080012974648047260000015102750433057037195_" gradientUnits="userSpaceOnUse" x1="409.8373" y1="701.5023" x2="409.8373" y2="597.588">
	<stop  offset="0" style="stop-color:#AAD037"/>
	<stop  offset="1" style="stop-color:#9CCB3D"/>
</linearGradient>
<polygon style="fill:url(#SVGID_00000021080012974648047260000015102750433057037195_);" points="398.407,638.708 398.407,597.588 
	421.268,597.588 421.268,701.502 398.407,701.502 398.407,659.788 "/>
<linearGradient id="SVGID_00000010289452226771033580000007895039026521501605_" gradientUnits="userSpaceOnUse" x1="243.4276" y1="683.32" x2="243.4276" y2="618.3609">
	<stop  offset="0" style="stop-color:#CBDF84;stop-opacity:0"/>
	<stop  offset="1" style="stop-color:#84AB3F"/>
</linearGradient>
<path style="fill:url(#SVGID_00000010289452226771033580000007895039026521501605_);" d="M255.46,661.971
	c-1.058-3.94-1.616-8.116-1.616-12.426v-0.384c0-10.992,3.722-21.017,10.069-28.5c-0.51-1.43-0.911-2.218-0.911-2.218
	c-14.787-3.009-27.62,2.597-37.462,11.731c-1.692,6.157-2.6,12.653-2.6,19.371v0.383c0,11.868,2.788,22.967,7.787,32.656
	C242.192,675.827,250.088,668.796,255.46,661.971z"/>
<path style="fill:#9CCB3D;" d="M222.941,649.545v0.383c0,11.868,2.788,22.967,7.787,32.656c12-33.9,24.069-51.966,32.803-61.477
	c2.482-3.016,5.384-5.634,8.637-7.755c2.762-1.918,4.356-2.427,4.356-2.427l0,0c4.878-2.312,10.362-3.608,16.285-3.608
	c6.112,0,11.623,1.203,16.796,3.387v-29.23c-5.02-0.913-10.512-1.412-16.604-1.412C251.733,580.062,222.941,611.348,222.941,649.545
	z"/>
<g>
	
		<linearGradient id="SVGID_00000170254738193766562720000003054837363808704658_" gradientUnits="userSpaceOnUse" x1="339.8321" y1="79.2958" x2="426.4961" y2="79.2958" gradientTransform="matrix(-1 0 0 -1 871.545 728.8409)">
		<stop  offset="0" style="stop-color:#CBDF84"/>
		<stop  offset="1" style="stop-color:#AAD037"/>
	</linearGradient>
	<path style="fill:url(#SVGID_00000170254738193766562720000003054837363808704658_);" d="M445.049,610.412
		c4.897-1.988,10.313-3.094,16.796-3.094c23.034,0,38.965,19.194,38.965,42.227v0.384c0,23.034-16.315,41.844-38.965,41.844
		c-6.112,0-11.623-1.203-16.796-3.386v29.23c5.02,0.913,10.512,1.412,16.604,1.412c41.268,0,70.06-31.286,70.06-69.484v-0.383
		c0-38.581-29.367-69.1-68.908-69.1c-6.545,0-12.413,0.592-17.756,1.708V610.412z"/>
	
		<linearGradient id="SVGID_00000119823210544578692630000009693608078579921839_" gradientUnits="userSpaceOnUse" x1="360.3184" y1="118.954" x2="360.3184" y2="53.9949" gradientTransform="matrix(-1 0 0 -1 871.545 728.8409)">
		<stop  offset="0" style="stop-color:#CBDF84;stop-opacity:0"/>
		<stop  offset="1" style="stop-color:#84AB3F"/>
	</linearGradient>
	<path style="fill:url(#SVGID_00000119823210544578692630000009693608078579921839_);" d="M499.194,637.119
		c1.058,3.941,1.616,8.116,1.616,12.426v0.384c0,10.992-3.723,21.016-10.069,28.5c0.51,1.43,0.911,2.218,0.911,2.218
		c14.787,3.009,27.62-2.597,37.461-11.731c1.692-6.157,2.601-12.653,2.601-19.371v-0.383c0-11.868-2.788-22.967-7.787-32.656
		C512.462,623.263,504.566,630.295,499.194,637.119z"/>
	<path style="fill:#9CCB3D;" d="M531.713,649.545v-0.383c0-11.868-2.788-22.967-7.787-32.656c-12,33.9-24.069,51.966-32.803,61.477
		c-2.482,3.016-5.384,5.634-8.637,7.755c-2.762,1.918-4.356,2.427-4.356,2.427l0,0c-4.878,2.312-10.362,3.608-16.285,3.608
		c-6.112,0-11.623-1.203-16.796-3.386v29.23c5.02,0.913,10.512,1.412,16.604,1.412C502.921,719.029,531.713,687.742,531.713,649.545
		z"/>
</g>
<g>
	
		<linearGradient id="SVGID_00000115506870446067248100000005151704722530741659_" gradientUnits="userSpaceOnUse" x1="307.8301" y1="538.4779" x2="446.7971" y2="538.4779">
		<stop  offset="0" style="stop-color:#8CCCE6"/>
		<stop  offset="1" style="stop-color:#36A6D6"/>
	</linearGradient>
	<path style="fill:url(#SVGID_00000115506870446067248100000005151704722530741659_);" d="M338.18,581.81
		c-1.988-4.897-3.094-10.313-3.094-16.796c0-23.034,19.194-38.965,42.227-38.965h0.384c23.034,0,41.844,16.315,41.844,38.965
		c0,6.112-1.202,11.623-3.386,16.796h29.23c0.913-5.02,1.412-10.512,1.412-16.604c0-41.268-31.287-70.06-69.483-70.06h-0.384
		c-38.581,0-69.1,29.367-69.1,68.908c0,6.545,0.592,12.413,1.708,17.756H338.18z"/>
	
		<linearGradient id="SVGID_00000129178961322073728230000012089582414165775028_" gradientUnits="userSpaceOnUse" x1="348.0561" y1="515.6322" x2="413.0153" y2="515.6322">
		<stop  offset="0" style="stop-color:#36A6D6;stop-opacity:0"/>
		<stop  offset="1" style="stop-color:#0657A3"/>
	</linearGradient>
	<path style="fill:url(#SVGID_00000129178961322073728230000012089582414165775028_);" d="M364.888,527.665
		c3.941-1.058,8.116-1.616,12.426-1.616h0.384c10.992,0,21.017,3.723,28.5,10.07c1.43-0.51,2.218-0.911,2.218-0.911
		c3.009-14.787-2.597-27.62-11.731-37.462c-6.157-1.692-12.653-2.6-19.371-2.6h-0.384c-11.868,0-22.967,2.788-32.656,7.787
		C351.032,514.397,358.063,522.292,364.888,527.665z"/>
	<path style="fill:#0E92CC;" d="M377.314,495.146h-0.384c-11.868,0-22.967,2.788-32.656,7.787c33.9,12,51.967,24.069,61.477,32.803
		c3.016,2.482,5.634,5.384,7.755,8.637c1.918,2.762,2.427,4.356,2.427,4.356l0,0c2.312,4.878,3.608,10.362,3.608,16.285
		c0,6.112-1.202,11.623-3.386,16.796h29.23c0.913-5.02,1.412-10.512,1.412-16.604C446.797,523.938,415.51,495.146,377.314,495.146z"
		/>
</g>
<g>
	
		<linearGradient id="SVGID_00000092435708476088043720000011984675603707232686_" gradientUnits="userSpaceOnUse" x1="302.1746" y1="305.9616" x2="388.8386" y2="305.9616" gradientTransform="matrix(0 -1 1 0 71.352 1105.9929)">
		<stop  offset="0" style="stop-color:#8CCCE6"/>
		<stop  offset="1" style="stop-color:#36A6D6"/>
	</linearGradient>
	<path style="fill:url(#SVGID_00000092435708476088043720000011984675603707232686_);" d="M416.447,717.154
		c1.988,4.897,3.094,10.313,3.094,16.796c0,23.033-19.194,38.965-42.227,38.965h-0.384c-23.034,0-41.844-16.315-41.844-38.965
		c0-6.112,1.203-11.623,3.387-16.796h-29.23c-0.913,5.02-1.412,10.512-1.412,16.604c0,41.268,31.287,70.06,69.483,70.06h0.383
		c38.581,0,69.1-29.367,69.1-68.908c0-6.545-0.592-12.413-1.708-17.756H416.447z"/>
	
		<linearGradient id="SVGID_00000068635103916647087930000006870465887385268921_" gradientUnits="userSpaceOnUse" x1="345.394" y1="783.332" x2="402.523" y2="783.332">
		<stop  offset="0" style="stop-color:#0657A3"/>
		<stop  offset="1" style="stop-color:#36A6D6;stop-opacity:0"/>
	</linearGradient>
	<path style="fill:url(#SVGID_00000068635103916647087930000006870465887385268921_);" d="M389.739,771.299
		c-3.941,1.058-8.116,1.616-12.426,1.616h-0.384c-10.993,0-21.017-3.723-28.5-10.07c-1.43,0.51-2.218,0.911-2.218,0.911
		c-3.009,14.787,2.597,27.62,11.731,37.462c6.157,1.692,12.653,2.6,19.371,2.6h0.383c11.868,0,22.967-2.788,32.656-7.787
		C403.595,784.567,396.564,776.672,389.739,771.299z"/>
	<path style="fill:#0E92CC;" d="M377.314,803.818h0.383c11.868,0,22.967-2.788,32.656-7.787c-33.9-12-51.966-24.069-61.477-32.803
		c-3.016-2.482-5.634-5.384-7.755-8.637c-1.918-2.762-2.427-4.356-2.427-4.356l0,0c-2.312-4.878-3.608-10.362-3.608-16.285
		c0-6.112,1.203-11.623,3.387-16.796h-29.23c-0.913,5.02-1.412,10.512-1.412,16.604C307.83,775.027,339.117,803.818,377.314,803.818
		z"/>
</g>
<linearGradient id="SVGID_00000173124371586801617650000016840070130199391128_" gradientUnits="userSpaceOnUse" x1="353.9438" y1="669.2197" x2="343.1886" y2="655.6861">
	<stop  offset="0" style="stop-color:#CBDF84;stop-opacity:0"/>
	<stop  offset="0.1378" style="stop-color:#BDD576;stop-opacity:0.1378"/>
	<stop  offset="0.4915" style="stop-color:#9EBE58;stop-opacity:0.4915"/>
	<stop  offset="0.7915" style="stop-color:#8BB046;stop-opacity:0.7915"/>
	<stop  offset="1" style="stop-color:#84AB3F"/>
</linearGradient>
<polygon style="fill:url(#SVGID_00000173124371586801617650000016840070130199391128_);" points="333.386,667.715 356.247,667.715 
	356.247,647.754 "/>
<linearGradient id="SVGID_00000125589812797198192950000004820568593185595827_" gradientUnits="userSpaceOnUse" x1="402.9883" y1="668.1345" x2="412.08" y2="655.8898">
	<stop  offset="0" style="stop-color:#CBDF84;stop-opacity:0"/>
	<stop  offset="0.1378" style="stop-color:#BDD576;stop-opacity:0.1378"/>
	<stop  offset="0.4915" style="stop-color:#9EBE58;stop-opacity:0.4915"/>
	<stop  offset="0.7915" style="stop-color:#8BB046;stop-opacity:0.7915"/>
	<stop  offset="1" style="stop-color:#84AB3F"/>
</linearGradient>
<polygon style="fill:url(#SVGID_00000125589812797198192950000004820568593185595827_);" points="421.268,667.715 398.407,667.715 
	398.407,650.105 "/>
<linearGradient id="SVGID_00000047032356924776369220000001832149196812774816_" gradientUnits="userSpaceOnUse" x1="333.3862" y1="648.5971" x2="421.2679" y2="648.5971">
	<stop  offset="0" style="stop-color:#0657A3"/>
	<stop  offset="0.5" style="stop-color:#0E92CC"/>
	<stop  offset="1" style="stop-color:#0657A3"/>
</linearGradient>
<path style="fill:url(#SVGID_00000047032356924776369220000001832149196812774816_);" d="M333.386,643.762
	c0,0,22.861-14.283,43.941-14.283c21.08,0,43.941,14.283,43.941,14.283v23.953c0,0-20.177-17.328-43.941-17.328
	c-23.764,0-43.941,17.328-43.941,17.328V643.762z"/>
<g>
	<path style="fill:#0657A3;" d="M568.149,606.944h18.03v32.43h33.249v-32.43h18.029v81.951h-18.029v-32.897h-33.249v32.897h-18.03
		V606.944z"/>
	<path style="fill:#0657A3;" d="M652.204,657.87v-0.234c0-18.029,14.517-32.663,34.069-32.663c19.435,0,33.834,14.4,33.834,32.429
		v0.234c0,18.03-14.518,32.664-34.068,32.664C666.604,690.3,652.204,675.901,652.204,657.87z M702.546,657.87v-0.234
		c0-9.248-6.673-17.327-16.507-17.327c-10.185,0-16.274,7.844-16.274,17.093v0.234c0,9.25,6.673,17.327,16.508,17.327
		C696.458,674.964,702.546,667.12,702.546,657.87z"/>
	<path style="fill:#0657A3;" d="M728.064,680.584l7.61-11.708c6.79,4.917,13.931,7.493,19.784,7.493
		c5.152,0,7.493-1.873,7.493-4.683v-0.234c0-3.863-6.088-5.151-12.995-7.259c-8.781-2.576-18.732-6.673-18.732-18.848v-0.234
		c0-12.762,10.302-19.903,22.946-19.903c7.962,0,16.625,2.693,23.415,7.259l-6.79,12.293c-6.205-3.629-12.41-5.854-16.976-5.854
		c-4.331,0-6.556,1.873-6.556,4.332v0.234c0,3.512,5.971,5.152,12.761,7.493c8.781,2.927,18.966,7.142,18.966,18.615v0.234
		c0,13.932-10.419,20.253-24,20.253C746.21,690.066,736.376,687.14,728.064,680.584z"/>
	<path style="fill:#0657A3;" d="M791.749,626.144h17.796v9.014c4.331-5.854,10.302-10.185,19.551-10.185
		c14.635,0,28.566,11.473,28.566,32.429v0.234c0,20.956-13.698,32.43-28.566,32.43c-9.482,0-15.336-4.331-19.551-9.365v26.926
		h-17.796V626.144z M839.867,657.636v-0.234c0-10.419-7.025-17.326-15.336-17.326c-8.313,0-15.221,6.907-15.221,17.326v0.234
		c0,10.42,6.908,17.327,15.221,17.327C832.842,674.964,839.867,668.174,839.867,657.636z"/>
	<path style="fill:#0657A3;" d="M871.121,603.431h18.732v15.805h-18.732V603.431z M871.589,626.144h17.795v62.751h-17.795V626.144z"
		/>
	<path style="fill:#0657A3;" d="M909.05,671.1v-29.737h-7.493v-15.219h7.493v-16.039h17.795v16.039h14.752v15.219h-14.752v26.81
		c0,4.097,1.756,6.088,5.737,6.088c3.277,0,6.205-0.82,8.781-2.225v14.282c-3.746,2.225-8.079,3.63-14.05,3.63
		C916.426,689.949,909.05,685.618,909.05,671.1z"/>
	<path style="fill:#0657A3;" d="M950.96,670.866v-0.234c0-13.698,10.42-20.02,25.289-20.02c6.322,0,10.887,1.053,15.336,2.576
		v-1.054c0-7.376-4.566-11.473-13.464-11.473c-6.79,0-11.59,1.288-17.327,3.395l-4.448-13.581
		c6.907-3.044,13.698-5.034,24.351-5.034c9.717,0,16.742,2.576,21.191,7.025c4.683,4.683,6.791,11.59,6.791,20.019v36.41h-17.21
		v-6.79c-4.332,4.8-10.302,7.96-18.966,7.96C960.677,690.066,950.96,683.276,950.96,670.866z M991.819,666.769v-3.162
		c-3.043-1.405-7.025-2.342-11.356-2.342c-7.61,0-12.293,3.045-12.293,8.664v0.234c0,4.8,3.98,7.61,9.717,7.61
		C986.2,677.773,991.819,673.208,991.819,666.769z"/>
	<path style="fill:#0657A3;" d="M1024.83,603.431h17.795v85.464h-17.795V603.431z"/>
</g>
<g>
	<path style="fill:#9CCB3D;" d="M683.386,723.652h-13.843v-2.722h30.635v2.722h-13.842v36.987h-2.95V723.652z"/>
	<path style="fill:#9CCB3D;" d="M702.731,752.244v-0.113c0-6.014,5.162-9.417,12.651-9.417c4.027,0,6.807,0.51,9.587,1.247v-1.247
		c0-5.843-3.574-8.851-9.53-8.851c-3.518,0-6.411,0.965-9.077,2.327l-1.021-2.44c3.176-1.475,6.296-2.495,10.268-2.495
		c3.914,0,7.035,1.077,9.134,3.176c1.928,1.929,2.95,4.595,2.95,8.169v18.04h-2.723v-4.821c-1.986,2.779-5.56,5.502-11.062,5.502
		C708.517,761.32,702.731,758.257,702.731,752.244z M725.026,749.804v-3.29c-2.439-0.624-5.673-1.305-9.815-1.305
		c-6.126,0-9.53,2.723-9.53,6.75v0.113c0,4.198,3.972,6.638,8.396,6.638C719.977,758.711,725.026,755.081,725.026,749.804z"/>
	<path style="fill:#9CCB3D;" d="M741.364,765.405l1.645-2.269c3.461,2.665,7.432,4.084,11.687,4.084
		c6.637,0,11.345-3.8,11.345-11.232v-4.198c-2.496,3.574-6.354,6.694-12.083,6.694c-6.978,0-13.9-5.332-13.9-13.614v-0.114
		c0-8.339,6.922-13.728,13.9-13.728c5.786,0,9.7,3.064,12.083,6.467v-5.786h2.78v24.451c0,4.198-1.362,7.488-3.687,9.815
		c-2.495,2.496-6.241,3.857-10.494,3.857C749.817,769.83,745.336,768.355,741.364,765.405z M766.211,744.812v-0.113
		c0-6.694-5.956-11.005-11.969-11.005c-6.07,0-11.175,4.198-11.175,10.949v0.113c0,6.524,5.219,11.063,11.175,11.063
		C760.255,755.818,766.211,751.393,766.211,744.812z"/>
	<path style="fill:#9CCB3D;" d="M784.026,719.227h2.78v41.412h-2.78V719.227z"/>
	<path style="fill:#9CCB3D;" d="M802.066,720.362h3.461v3.801h-3.461V720.362z M802.407,731.707h2.779v28.932h-2.779V731.707z"/>
	<path style="fill:#9CCB3D;" d="M820.39,731.707h2.779v5.39c1.929-3.404,5.162-6.071,10.439-6.071
		c7.318,0,11.571,4.992,11.571,11.914v17.699h-2.779v-17.188c0-5.958-3.347-9.871-9.191-9.871c-5.673,0-10.041,4.312-10.041,10.324
		v16.735h-2.779V731.707z"/>
	<path style="fill:#9CCB3D;" d="M857.436,746.23v-0.113c0-8.395,5.9-15.09,13.727-15.09c8.113,0,13.275,6.582,13.275,15.147
		c0,0.511,0,0.681-0.057,1.135h-23.996c0.51,7.205,5.672,11.403,11.345,11.403c4.481,0,7.546-1.986,9.928-4.539l1.929,1.703
		c-2.951,3.176-6.411,5.445-11.97,5.445C864.016,761.32,857.436,755.25,857.436,746.23z M881.432,744.812
		c-0.398-5.843-3.745-11.232-10.382-11.232c-5.73,0-10.154,4.822-10.664,11.232H881.432z"/>
	<path style="fill:#9CCB3D;" d="M918.08,719.227h2.78v17.87c1.929-3.404,5.162-6.071,10.438-6.071
		c7.319,0,11.573,4.992,11.573,11.914v17.699h-2.779v-17.188c0-5.958-3.347-9.871-9.19-9.871c-5.673,0-10.041,4.312-10.041,10.324
		v16.735h-2.78V719.227z"/>
	<path style="fill:#9CCB3D;" d="M955.125,746.23v-0.113c0-8.395,5.899-15.09,13.727-15.09c8.113,0,13.276,6.582,13.276,15.147
		c0,0.511,0,0.681-0.057,1.135h-23.996c0.51,7.205,5.672,11.403,11.345,11.403c4.481,0,7.546-1.986,9.928-4.539l1.929,1.703
		c-2.951,3.176-6.411,5.445-11.97,5.445C961.705,761.32,955.125,755.25,955.125,746.23z M979.121,744.812
		c-0.398-5.843-3.745-11.232-10.382-11.232c-5.73,0-10.155,4.822-10.664,11.232H979.121z"/>
	<path style="fill:#9CCB3D;" d="M994.496,731.707h2.78v8.227c2.269-5.162,7.091-8.907,12.821-8.68v3.063h-0.284
		c-6.694,0-12.537,5.049-12.537,14.466v11.856h-2.78V731.707z"/>
	<path style="fill:#9CCB3D;" d="M1018.04,746.23v-0.113c0-8.395,5.9-15.09,13.727-15.09c8.113,0,13.276,6.582,13.276,15.147
		c0,0.511,0,0.681-0.057,1.135h-23.996c0.51,7.205,5.672,11.403,11.345,11.403c4.481,0,7.546-1.986,9.928-4.539l1.929,1.703
		c-2.951,3.176-6.411,5.445-11.971,5.445C1024.621,761.32,1018.04,755.25,1018.04,746.23z M1042.036,744.812
		c-0.398-5.843-3.745-11.232-10.382-11.232c-5.73,0-10.155,4.822-10.664,11.232H1042.036z"/>
</g>
</svg>
